<svg id="visual" viewBox="0 0 900 600" width="900" height="600" xmlns="http://www.w3.org/2000/svg" xmlns:xlink="http://www.w3.org/1999/xlink" version="1.1"><rect x="0" y="0" width="900" height="600" fill="#FFCAD4"></rect><g fill="#F7AF9D"><circle r="72" cx="492" cy="109"></circle><circle r="32" cx="730" cy="331"></circle><circle r="49" cx="717" cy="107"></circle><circle r="50" cx="282" cy="505"></circle><circle r="33" cx="253" cy="71"></circle><circle r="57" cx="87" cy="554"></circle><circle r="33" cx="102" cy="370"></circle><circle r="70" cx="253" cy="350"></circle><circle r="39" cx="622" cy="586"></circle><circle r="55" cx="118" cy="145"></circle><circle r="39" cx="867" cy="573"></circle><circle r="66" cx="409" cy="581"></circle><circle r="47" cx="880" cy="90"></circle><circle r="55" cx="555" cy="447"></circle><circle r="60" cx="459" cy="287"></circle><circle r="54" cx="7" cy="40"></circle><circle r="31" cx="747" cy="478"></circle><circle r="31" cx="610" cy="249"></circle><circle r="42" cx="873" cy="277"></circle><circle r="56" cx="5" cy="258"></circle><circle r="38" cx="606" cy="4"></circle></g></svg>